<svg id="Слой_1" data-name="Слой 1" xmlns="http://www.w3.org/2000/svg" viewBox="0 0 26.43 32.39"><defs><style>.cls-1{fill:#e8408f;}.cls-2{fill:#e15d9d;}.cls-3{fill:#3b79bd;}.cls-4{fill:#32bde7;}.cls-5{fill:#62becd;}</style></defs><rect class="cls-1" x="9.14" y="17.09" width="12.08" height="12.08"/><rect class="cls-2" y="7.95" width="9.14" height="9.14"/><rect class="cls-3" x="9.69" y="0.69" width="7.25" height="7.25"/><rect class="cls-4" x="16.94" y="7.95" width="5.21" height="5.21"/><rect class="cls-5" x="14.18" y="13.15" width="2.77" height="2.77"/><rect class="cls-5" x="25.05" y="29.17" width="1.38" height="1.38"/><path class="cls-5" d="M23.66,31H25a0,0,0,0,1,0,0v.82a.57.57,0,0,1-.57.57h-.82a0,0,0,0,1,0,0V31A0,0,0,0,1,23.66,31Z"/><rect class="cls-5" x="22.65" y="28.86" width="1.38" height="1.38"/><rect class="cls-5" y="2.94" width="1.38" height="1.38"/><rect class="cls-5" x="3.39" width="1.38" height="1.38"/><rect class="cls-5" width="1.38" height="1.38"/></svg>